# AST/ASF file generated using VICON BodyLanguage
# -----------------------------------------------
:version 1.10
:name VICON
:units
  mass 1.0
  length 0.45
  angle deg
:documentation
   .ast/.asf automatically generated from VICON data using
   VICON BodyBuilder and BodyLanguage model FoxedUp or BRILLIANT.MOD
:root
   order TX TY TZ RX RY RZ
   axis XYZ
   position 0 0 0  
   orientation 0 0 0 
:bonedata
  begin
     id 1 
     name lhipjoint
     direction 0.627457 -0.725269 0.283342 
     length 2.53237 
     axis 0 0 0  XYZ
  end
  begin
     id 2 
     name lfemur
     direction 0.34202 -0.939693 0  
     length 7.32496  
     axis 0 0 20  XYZ
    dof rx ry rz
    limits (-160.0 20.0)
           (-70.0 70.0)
           (-60.0 70.0)
  end
  begin
     id 3 
     name ltibia
     direction 0.34202 -0.939693 0   
     length 7.69674   
     axis 0 0 20   XYZ
    dof rx
    limits (-10.0 170.0)
  end
  begin
     id 4 
     name lfoot
     direction 0.127289 -0.349722 0.928166   
     length 1.8612   
     axis -90 7.62852e-016 20   XYZ
    dof rx rz
    limits (-45.0 90.0)
           (-70.0 20.0)
  end
  begin
     id 5 
     name ltoes
     direction 1.53561e-011 -4.21864e-011 1   
     length 0.925608   
     axis -90 7.62852e-016 20   XYZ
    dof rx
    limits (-90.0 20.0)
  end
  begin
     id 6 
     name rhipjoint
     direction -0.609094 -0.738725 0.288599   
     length 2.48624  
     axis 0 0 0  XYZ 
  end
  begin
     id 7 
     name rfemur
     direction -0.34202 -0.939693 0   
     length 7.44259   
     axis 0 0 -20   XYZ
    dof rx ry rz
    limits (-160.0 20.0)
           (-70.0 70.0)
           (-70.0 60.0)
  end
  begin
     id 8 
     name rtibia
     direction -0.34202 -0.939693 0   
     length 7.7781   
     axis 0 0 -20   XYZ
    dof rx
    limits (-10.0 170.0)
 end
 begin
     id 9 
     name rfoot
     direction -0.107015 -0.294021 0.949789   
     length 2.14741  
     axis -90 -7.62852e-016 -20   XYZ
    dof rx rz
    limits (-45.0 90.0)
           (-20.0 70.0)
  end
  begin
     id 10 
     name rtoes
     direction -1.53497e-011 -4.21924e-011 1   
     length 1.0706   
     axis -90 -7.62852e-016 -20   XYZ
    dof rx
    limits (-90.0 20.0)
  end
  begin
     id 11 
     name lowerback
     direction -0.0142066 0.998112 -0.0597545   
     length 1.86627   
     axis 0 0 0   XYZ
    dof rx ry rz
    limits (-20.0 45.0)
           (-30.0 30.0)
           (-30.0 30.0)
  end
  begin
     id 12 
     name upperback
     direction 0.00547294 0.999744 0.0219437   
     length 1.86272   
     axis 0 0 0   XYZ
    dof rx ry rz
    limits (-20.0 45.0)
           (-30.0 30.0)
           (-30.0 30.0)
  end
  begin
     id 13 
     name thorax
     direction 0.0116162 0.998704 0.0495538   
     length 1.8703   
     axis 0 0 0   XYZ
    dof rx ry rz
    limits (-20.0 45.0)
           (-30.0 30.0)
           (-30.0 30.0)
  end
  begin
     id 14 
     name lowerneck
     direction -0.0106574 0.998739 0.0490586   
     length 1.8074   
     axis 0 0 0   XYZ
    dof rx ry rz
    limits (-20.0 45.0)
           (-30.0 30.0)
           (-30.0 30.0)
  end
  begin
     id 15 
     name upperneck
     direction 0.030527 0.976587 -0.212944   
     length 1.80681   
     axis 0 0 0   XYZ
    dof rx ry rz
    limits (-20.0 45.0)
           (-30.0 30.0)
           (-30.0 30.0)
  end
  begin
     id 16
     name head
     direction 0.00869225 0.997035 -0.0764531  
     length 1.8313  
     axis 0 0 0   XYZ
    dof rx ry rz
    limits (-20.0 45.0)
           (-30.0 30.0)
           (-30.0 30.0)
  end
  begin
     id 17 
     name lclavicle
     direction 0.915958 0.399447 0.0382386  
     length 3.78965  
     axis 0 0 0   XYZ
    dof ry rz
    limits (-20.0 10.0)
           (0.0 20.0)
  end
  begin
     id 18 
     name lhumerus
     direction 1 -4.48967e-011 3.19303e-027   
     length 4.78095   
     axis -180 -30 -90   XYZ
    dof rx ry rz
    limits (-60.0 90.0)
           (-90.0 90.0)
           (-90.0 90.0)
  end
  begin
     id 19
     name lradius
     direction 1 -4.48967e-011 -3.77974e-027   
     length 3.58615   
     axis -180 -30 -90   XYZ
    dof rx
    limits (-10.0 170.0)
  end
  begin
     id 20
     name lwrist
     direction 1 -4.48927e-011 1.2807e-027   
     length 1.79307   
     axis 1.91374e-015 90 90   XYZ
    dof ry
    limits (-180.0 0.0)
 end
  begin
     id 21 
     name lhand
     direction 1 -4.49036e-011 2.5614e-027   
     length 0.659812   
     axis -1.63439e-015 90 90   XYZ
    dof rx rz
    limits (-90.0 90.0)
           (-45.0 45.0)
  end
  begin
     id 22 
     name lfingers
     direction 1 -4.49052e-011 5.1228e-027   
     length 0.531957   
     axis -3.26879e-015 90 90   XYZ
    dof rx
    limits (0.0 90.0)
  end
  begin
     id 23
     name lthumb
     direction 0.707107 -6.35012e-011 0.707107   
     length 0.763787   
     axis -90 45 2.85299e-015   XYZ
    dof rx rz
    limits (-45.0 45.0)
           (-45.0 45.0)
  end
  begin
     id 24 
     name rclavicle
     direction -0.895351 0.435135 0.0948887   
     length 3.70497  
     axis 0 0 0   XYZ 
    dof ry rz
    limits (-10.0 20.0)
           (-20.0 0.0)
  end
  begin
     id 25 
     name rhumerus
     direction -1 -4.48971e-011 2.38946e-027  
     length 4.48913   
     axis -180 30 90   XYZ
    dof rx ry rz
    limits (-90.0 60.0)
           (-90.0 90.0)
           (-90.0 90.0)
  end
  begin
     id 26 
     name rradius
     direction -1 -4.4895e-011 4.38668e-027   
     length 3.7051   
     axis -180 30 90   XYZ
    dof rx
    limits (-10.0 170.0)
  end
  begin
     id 27 
     name rwrist
     direction -1 -4.49007e-011 1.2807e-027   
     length 1.85255   
     axis 1.91374e-015 -90 -90   XYZ
    dof ry
    limits (-180.0 0.0)
  end
  begin
     id 28
     name rhand
     direction -1 -4.48851e-011 2.5614e-027   
     length 0.449136   
     axis -1.63439e-015 -90 -90   XYZ
    dof rx rz
    limits (-90.0 90.0)
           (-45.0 45.0)
  end
  begin
     id 29
     name rfingers
     direction -1 -4.49128e-011 5.1228e-027   
     length 0.362105   
     axis -3.26879e-015 -90 -90   XYZ
    dof rx
    limits (0.0 90.0)
  end
  begin
     id 30
     name rthumb
     direction -0.707107 -6.34851e-011 0.707107   
     length 0.519912   
     axis -90 -45 -2.85299e-015   XYZ
    dof rx rz
    limits (-45.0 45.0)
           (-45.0 45.0)
  end
:hierarchy
  begin
    root lhipjoint rhipjoint lowerback
    lhipjoint lfemur
    lfemur ltibia
    ltibia lfoot
    lfoot ltoes
    rhipjoint rfemur
    rfemur rtibia
    rtibia rfoot
    rfoot rtoes
    lowerback upperback
    upperback thorax
    thorax lowerneck lclavicle rclavicle
    lowerneck upperneck
    upperneck head
    lclavicle lhumerus
    lhumerus lradius
    lradius lwrist
    lwrist lhand lthumb
    lhand lfingers
    rclavicle rhumerus
    rhumerus rradius
    rradius rwrist
    rwrist rhand rthumb
    rhand rfingers
  end

#!OML:ASF I:\Actors\actors\Patient Classification 2\Patient 1\Session 1\actor1.ASF
:FULLY-SPECIFIED
:DEGREES
1
root -0.789105 18.5096 6.23619 -5.356 -1.45188 -3.43421
lowerback 5.88865 0.81803 2.64898
upperback 0.381478 1.27958 0.469958
thorax -2.86113 0.606242 -1.10746
lowerneck -9.77117 -1.48675 0.882658
upperneck 20.9868 -2.47008 1.10457
head 8.10542 -0.996252 -0.0238254
rclavicle -5.59082e-017 -5.36719e-015
rhumerus -51.6005 -11.7674 -82.0415
rradius 42.4633
rwrist 10.0658
rhand -8.36947 -32.463
rfingers 7.12502
rthumb 17.5533 -61.6905
lclavicle -5.59082e-017 -5.36719e-015
lhumerus -42.1801 8.46557 85.6733
lradius 37.0861
lwrist -9.37231
lhand -4.33705 -26.3323
lfingers 7.12502
lthumb 21.4303 2.50241
rfemur 16.3634 0.563216 18.2471
rtibia -3.18055e-015
rfoot -17.8709 -9.6439
rtoes -7.91768
lfemur 1.31765 -5.3826 -11.6725
ltibia 25.2953
lfoot -22.844 10.2744
ltoes -58.2013
2
root -0.789209 18.5091 6.23636 -5.35898 -1.44756 -3.45401
lowerback 5.88642 0.820639 2.67335
upperback 0.382248 1.28472 0.474659
thorax -2.85847 0.608562 -1.11664
lowerneck -9.73018 -1.46775 0.871128
upperneck 20.9738 -2.44026 1.10361
head 8.09363 -0.983423 -0.0188609
rclavicle 1.71949e-014 -1.98785e-015
rhumerus -51.602 -11.6886 -82.0817
rradius 42.4772
rwrist 9.95805
rhand -8.43893 -32.4771
rfingers 7.12502
rthumb 17.4865 -61.7106
lclavicle 1.71949e-014 -1.98785e-015
lhumerus -42.1575 8.47042 85.6774
lradius 37.0859
lwrist -9.36679
lhand -4.22002 -26.2189
lfingers 7.12502
lthumb 21.5427 2.60303
rfemur 16.3691 0.556171 18.2707
rtibia -2.38542e-014
rfoot -17.8727 -9.63667
rtoes -7.74766
lfemur 1.30915 -5.36811 -11.6466
ltibia 25.3117
lfoot -22.8347 10.2598
ltoes -58.2139
3
root -0.788915 18.5096 6.23672 -5.34938 -1.43706 -3.46277
lowerback 5.86722 0.824528 2.701
upperback 0.390088 1.29076 0.469491
thorax -2.83867 0.611535 -1.13751
lowerneck -9.743 -1.44721 0.838157
upperneck 20.9937 -2.41372 1.13901
head 8.10347 -0.969599 0.000803643
rclavicle -5.17461e-015 -3.97569e-015
rhumerus -51.6148 -11.6491 -82.1032
rradius 42.5403
rwrist 9.94379
rhand -8.41515 -32.5584
rfingers 7.12502
rthumb 17.5094 -61.7899
lclavicle -5.17461e-015 -3.97569e-015
lhumerus -42.0999 8.4557 85.685
lradius 37.0789
lwrist -9.39075
lhand -4.20823 -26.0669
lfingers 7.12502
lthumb 21.554 2.75373
rfemur 16.3578 0.54438 18.2796
rtibia 2.8625e-014
rfoot -17.8638 -9.65733
rtoes -7.8331
lfemur 1.29623 -5.42694 -11.6493
ltibia 25.3279
lfoot -22.8655 10.2721
ltoes -58.1764
4
root -0.788339 18.5103 6.23735 -5.33958 -1.41295 -3.47503
lowerback 5.83523 0.823575 2.74008
upperback 0.405178 1.2901 0.450757
thorax -2.80391 0.611239 -1.17788
lowerneck -9.75877 -1.4325 0.842346
upperneck 21.0007 -2.40063 1.1682
head 8.10905 -0.959993 0.0109004
rclavicle 7.10034e-015 6.36111e-015
rhumerus -51.608 -11.6569 -82.1225
rradius 42.5761
rwrist 9.96642
rhand -8.33964 -32.6703
rfingers 7.12502
rthumb 17.582 -61.8953
lclavicle 7.10034e-015 6.36111e-015
lhumerus -42.0526 8.39863 85.6888
lradius 37.0961
lwrist -9.36446
lhand -4.28534 -25.9849
lfingers 7.12502
lthumb 21.4799 2.84418
rfemur 16.3512 0.519141 18.2885
rtibia 6.36111e-015
rfoot -17.871 -9.66851
rtoes -7.89587
lfemur 1.28435 -5.4979 -11.651
ltibia 25.3382
lfoot -22.8977 10.2969
ltoes -58.1619
5
root -0.788297 18.5102 6.23742 -5.34396 -1.38495 -3.48235
lowerback 5.83787 0.82093 2.7508
upperback 0.407137 1.28725 0.447761
thorax -2.80318 0.609698 -1.18678
lowerneck -9.75295 -1.42665 0.830543
upperneck 21.0028 -2.39398 1.18577
head 8.10907 -0.956024 0.019402
rclavicle 1.17718e-014 -4.57205e-015
rhumerus -51.5729 -11.6861 -82.0958
rradius 42.5434
rwrist 9.99955
rhand -8.25903 -32.7784
rfingers 7.12502
rthumb 17.6596 -61.9964
lclavicle 1.17718e-014 -4.57205e-015
lhumerus -42.0642 8.35817 85.7018
lradius 37.1506
lwrist -9.31804
lhand -4.3348 -26.0006
lfingers 7.12502
lthumb 21.4324 2.83393
rfemur 16.3625 0.49076 18.2927
rtibia -1.27222e-014
rfoot -17.8749 -9.648
rtoes -7.6929
lfemur 1.27249 -5.43185 -11.6244
ltibia 25.343
lfoot -22.8444 10.2508
ltoes -58.233
6
root -0.789077 18.5099 6.23697 -5.34249 -1.34652 -3.4677
lowerback 5.85565 0.821212 2.71782
upperback 0.397795 1.28647 0.454555
thorax -2.82369 0.609384 -1.16167
lowerneck -9.81772 -1.43125 0.710256
upperneck 21.0886 -2.40623 1.30275
head 8.15272 -0.95845 0.0763071
rclavicle 3.52843e-015 -6.55989e-015
rhumerus -51.5527 -11.6712 -82.055
rradius 42.5239
rwrist 10.0269
rhand -8.20709 -32.8938
rfingers 7.12502
rthumb 17.7096 -62.1073
lclavicle 3.52843e-015 -6.55989e-015
lhumerus -42.0764 8.34434 85.7167
lradius 37.1648
lwrist -9.32795
lhand -4.35223 -26.0495
lfingers 7.12502
lthumb 21.4157 2.78693
rfemur 16.3654 0.45388 18.2741
rtibia 3.02153e-014
rfoot -17.8758 -9.63449
rtoes -7.61789
lfemur 1.25028 -5.35331 -11.6143
ltibia 25.3415
lfoot -22.7818 10.1722
ltoes -58.2924
